<svg xmlns="http://www.w3.org/2000/svg" xmlns:xlink="http://www.w3.org/1999/xlink" viewBox="0,0,256,256" width="480px" height="480px" fill-rule="nonzero"><g fill="#000000" fill-rule="nonzero" stroke="none" stroke-width="1" stroke-linecap="butt" stroke-linejoin="miter" stroke-miterlimit="10" stroke-dasharray="" stroke-dashoffset="0" font-family="none" font-weight="none" font-size="none" text-anchor="none" style="mix-blend-mode: normal"><g transform="scale(5.33333,5.33333)"><path d="M38,16c0,0 3,-1 4.736,-2.403c0.465,-0.445 0.681,-1.107 0.264,-1.597c-1.12,-1.316 -6.376,-3.486 -11,-4l-2,4c0,0 8.972,-0.541 10,1c0.806,1.209 -2,3 -2,3z"></path><path d="M8.988,16c0,0 -3,-1 -4.736,-2.403c-0.465,-0.445 -0.681,-1.107 -0.264,-1.597c1.12,-1.316 6.376,-3.486 11,-4l2,4c0,0 -8.972,-0.541 -10,1c-0.806,1.209 2,3 2,3z"></path><path d="M23.522,16.06c-6.821,-0.154 -12.382,4.996 -12.544,11.488c-0.004,0.178 -0.005,0.356 -0.001,0.534c0,8.462 5.208,13.919 14.117,13.919c3.883,0 6.874,-1.018 8.91,-3.492c0,0 0,-3.991 0,-4.989c0,-2.302 2.983,-2.521 2.983,-2.521l-12.989,-0.019c0,0 4.008,0.736 4.008,2.987c0,0.998 0.019,5.01 0.019,5.01c-0.608,0.579 -2.165,1.063 -3.025,1.039c-6.979,0 -8.074,-8.938 -8.074,-11.931c0,-2.993 1.238,-10.031 8.168,-10.031c7.862,0.499 8.91,7.483 8.91,7.483l-0.026,-8.531c-1.297,0.329 -2.742,0.538 -4.166,0.05c-1.839,-0.608 -4.344,-1.07 -6.29,-0.996z"></path><path d="M24,13l-0.418,-1.672c-0.358,-1.433 -1.477,-2.552 -2.91,-2.91l-1.672,-0.418l1.672,-0.418c1.433,-0.358 2.552,-1.477 2.91,-2.91l0.418,-1.672l0.418,1.672c0.358,1.433 1.477,2.552 2.91,2.91l1.672,0.418l-1.672,0.418c-1.433,0.358 -2.552,1.477 -2.91,2.91z"></path></g></g></svg>